<svg xmlns="http://www.w3.org/2000/svg" xmlns:xlink="http://www.w3.org/1999/xlink" xmlns:svgjs="http://svgjs.com/svgjs" version="1.1" width="512" height="512" x="0" y="0" viewBox="0 0 512 512" style="enable-background:new 0 0 512 512" xml:space="preserve"><g><path d="M133.5 468.65c-1.53 0-3.07-.59-4.24-1.76l-84.94-84.94c-1.13-1.12-1.76-2.65-1.76-4.24s.63-3.12 1.76-4.24L371.5 46.29a6 6 0 0 1 8.48 0l84.94 84.94c1.13 1.12 1.76 2.65 1.76 4.24s-.63 3.12-1.76 4.24L137.74 466.89a5.974 5.974 0 0 1-4.24 1.76zm-76.46-90.94 76.46 76.46 318.7-318.7-76.46-76.46z" fill="#000000" data-original="#000000"/><path d="M460.68 141.47c-1.53 0-3.07-.59-4.24-1.76L371.5 54.77c-1.13-1.12-1.76-2.65-1.76-4.24s.63-3.12 1.76-4.24l31.46-31.46c9.5-9.5 22.18-14.74 35.7-14.74s26.2 5.24 35.7 14.74l22.02 22.02c9.5 9.5 14.74 22.18 14.74 35.7s-5.23 26.2-14.74 35.7l-31.46 31.46a5.974 5.974 0 0 1-4.24 1.76zm-76.46-90.94 76.46 76.46 27.22-27.22c7.24-7.24 11.22-16.9 11.22-27.22s-3.98-19.98-11.22-27.22l-22.02-22.02c-7.24-7.24-16.9-11.22-27.22-11.22s-19.98 3.98-27.22 11.22z" fill="#000000" data-original="#000000"/><path d="M437.48 164.67c-1.53 0-3.07-.59-4.24-1.76L348.3 77.97c-1.13-1.12-1.76-2.65-1.76-4.24s.63-3.12 1.76-4.24l23.2-23.2a6 6 0 0 1 8.48 0l84.94 84.94c1.13 1.12 1.76 2.65 1.76 4.24s-.63 3.12-1.76 4.24l-23.2 23.2a5.991 5.991 0 0 1-4.24 1.76zm-76.46-90.94 76.46 76.46 14.72-14.72-76.46-76.46z" fill="#000000" data-original="#000000"/><path d="M105.18 440.33a5.95 5.95 0 0 1-4.24-1.76 6 6 0 0 1 0-8.48l303.98-303.98a6 6 0 0 1 8.48 0 5.993 5.993 0 0 1 0 8.49L109.42 438.57a5.933 5.933 0 0 1-4.24 1.76zm-28.3-28.31c-1.54 0-3.07-.58-4.25-1.76a6 6 0 0 1 0-8.48L376.61 97.8c2.35-2.34 6.15-2.34 8.48 0a5.993 5.993 0 0 1 0 8.49L81.12 410.26a5.95 5.95 0 0 1-4.24 1.76z" fill="#000000" data-original="#000000"/><path d="M6.88 511.91c-1.55 0-3.07-.61-4.21-1.73a5.98 5.98 0 0 1-1.49-6.13l41.68-128.2a5.966 5.966 0 0 1 4.3-3.97 5.98 5.98 0 0 1 5.64 1.59l84.94 84.94a5.967 5.967 0 0 1 1.6 5.59 5.973 5.973 0 0 1-3.9 4.32L8.82 511.58c-.63.22-1.29.33-1.94.33zm44.36-123.04L16.29 496.35l106.17-36.27z" fill="#000000" data-original="#000000"/><path d="M6.88 511.91c-1.55 0-3.07-.61-4.21-1.73a5.98 5.98 0 0 1-1.49-6.13l22.19-68.26a5.97 5.97 0 0 1 4.29-3.97c2.02-.49 4.15.1 5.63 1.56 3.26 3.22 6.31 6.7 9.08 10.32 9.98 13.08 16.54 28.54 18.99 44.72a6.014 6.014 0 0 1-3.99 6.58L8.82 511.58c-.63.22-1.29.33-1.94.33zm24.69-62.54-15.28 46.99 32.31-11.04a86.242 86.242 0 0 0-17.03-35.95z" fill="#000000" data-original="#000000"/></g></svg>